<svg xmlns="http://www.w3.org/2000/svg" width="600" height="600" viewBox="0 0 600 600">
  <defs>
    <pattern id="circuit" width="200" height="200" patternUnits="userSpaceOnUse">
      <!-- Main horizontal traces with angles -->
      <path d="M 0 30 L 25 30 L 35 20 L 70 20" fill="none" stroke="#4a5568" stroke-width="1.2" opacity="0.5"/>
      <path d="M 130 20 L 160 20 L 170 30 L 200 30" fill="none" stroke="#4a5568" stroke-width="1.2" opacity="0.5"/>
      <path d="M 0 80 L 40 80 L 50 70 L 85 70" fill="none" stroke="#4a5568" stroke-width="1.2" opacity="0.4"/>
      <path d="M 115 70 L 150 70 L 160 80 L 200 80" fill="none" stroke="#4a5568" stroke-width="1.2" opacity="0.4"/>
      <path d="M 0 130 L 30 130 L 45 145 L 75 145" fill="none" stroke="#4a5568" stroke-width="1.2" opacity="0.45"/>
      <path d="M 125 145 L 155 145 L 170 130 L 200 130" fill="none" stroke="#4a5568" stroke-width="1.2" opacity="0.45"/>
      <path d="M 0 180 L 55 180 L 65 170 L 90 170" fill="none" stroke="#4a5568" stroke-width="1.2" opacity="0.35"/>
      <path d="M 110 170 L 135 170 L 145 180 L 200 180" fill="none" stroke="#4a5568" stroke-width="1.2" opacity="0.35"/>

      <!-- Vertical and diagonal traces -->
      <path d="M 70 20 L 70 45 L 80 55 L 80 70" fill="none" stroke="#4a5568" stroke-width="1.2" opacity="0.5"/>
      <path d="M 130 20 L 130 35 L 120 45 L 120 70" fill="none" stroke="#4a5568" stroke-width="1.2" opacity="0.5"/>
      <path d="M 85 70 L 85 95 L 95 105 L 95 125" fill="none" stroke="#4a5568" stroke-width="1.2" opacity="0.4"/>
      <path d="M 115 70 L 115 90 L 105 100 L 105 125" fill="none" stroke="#4a5568" stroke-width="1.2" opacity="0.4"/>
      <path d="M 75 145 L 75 160 L 85 170 L 90 170" fill="none" stroke="#4a5568" stroke-width="1.2" opacity="0.45"/>
      <path d="M 125 145 L 125 160 L 115 170 L 110 170" fill="none" stroke="#4a5568" stroke-width="1.2" opacity="0.45"/>

      <!-- Extended traces going off pattern -->
      <path d="M 25 0 L 25 15 L 35 20" fill="none" stroke="#4a5568" stroke-width="1.2" opacity="0.4"/>
      <path d="M 175 0 L 175 15 L 165 20 L 160 20" fill="none" stroke="#4a5568" stroke-width="1.2" opacity="0.4"/>
      <path d="M 50 200 L 50 185 L 60 175 L 65 170" fill="none" stroke="#4a5568" stroke-width="1.2" opacity="0.35"/>
      <path d="M 150 200 L 150 185 L 140 175 L 135 170" fill="none" stroke="#4a5568" stroke-width="1.2" opacity="0.35"/>

      <!-- Cross connections with angles -->
      <path d="M 40 80 L 40 60 L 55 45 L 70 45" fill="none" stroke="#4a5568" stroke-width="1" opacity="0.35"/>
      <path d="M 160 80 L 160 60 L 145 45 L 130 45" fill="none" stroke="#4a5568" stroke-width="1" opacity="0.35"/>

      <!-- Small branch traces -->
      <path d="M 95 125 L 100 130 L 100 145" fill="none" stroke="#4a5568" stroke-width="1" opacity="0.4"/>
      <path d="M 105 125 L 100 130" fill="none" stroke="#4a5568" stroke-width="1" opacity="0.4"/>

      <!-- Additional angled connectors -->
      <path d="M 0 55 L 20 55 L 30 45 L 55 45" fill="none" stroke="#4a5568" stroke-width="1" opacity="0.3"/>
      <path d="M 200 55 L 180 55 L 170 45 L 145 45" fill="none" stroke="#4a5568" stroke-width="1" opacity="0.3"/>
      <path d="M 0 105 L 35 105 L 50 120 L 50 145" fill="none" stroke="#4a5568" stroke-width="1" opacity="0.3"/>
      <path d="M 200 105 L 165 105 L 150 120 L 150 145" fill="none" stroke="#4a5568" stroke-width="1" opacity="0.3"/>

      <!-- Junction nodes/pads -->
      <circle cx="70" cy="20" r="3" fill="#4a5568" opacity="0.6"/>
      <circle cx="130" cy="20" r="3" fill="#4a5568" opacity="0.6"/>
      <circle cx="85" cy="70" r="3" fill="#4a5568" opacity="0.6"/>
      <circle cx="115" cy="70" r="3" fill="#4a5568" opacity="0.6"/>
      <circle cx="75" cy="145" r="3" fill="#4a5568" opacity="0.6"/>
      <circle cx="125" cy="145" r="3" fill="#4a5568" opacity="0.6"/>
      <circle cx="90" cy="170" r="3" fill="#4a5568" opacity="0.6"/>
      <circle cx="110" cy="170" r="3" fill="#4a5568" opacity="0.6"/>
      <circle cx="100" cy="130" r="2.5" fill="#4a5568" opacity="0.5"/>

      <!-- Small via holes -->
      <circle cx="35" cy="20" r="2" fill="none" stroke="#4a5568" stroke-width="1" opacity="0.5"/>
      <circle cx="165" cy="20" r="2" fill="none" stroke="#4a5568" stroke-width="1" opacity="0.5"/>
      <circle cx="50" cy="70" r="2" fill="none" stroke="#4a5568" stroke-width="1" opacity="0.4"/>
      <circle cx="150" cy="70" r="2" fill="none" stroke="#4a5568" stroke-width="1" opacity="0.4"/>
      <circle cx="45" cy="145" r="2" fill="none" stroke="#4a5568" stroke-width="1" opacity="0.45"/>
      <circle cx="155" cy="145" r="2" fill="none" stroke="#4a5568" stroke-width="1" opacity="0.45"/>

      <!-- Endpoint small dots -->
      <circle cx="25" cy="30" r="1.5" fill="#4a5568" opacity="0.5"/>
      <circle cx="175" cy="30" r="1.5" fill="#4a5568" opacity="0.5"/>
      <circle cx="40" cy="80" r="1.5" fill="#4a5568" opacity="0.45"/>
      <circle cx="160" cy="80" r="1.5" fill="#4a5568" opacity="0.45"/>
      <circle cx="30" cy="130" r="1.5" fill="#4a5568" opacity="0.4"/>
      <circle cx="170" cy="130" r="1.5" fill="#4a5568" opacity="0.4"/>
    </pattern>
  </defs>
  <rect width="600" height="600" fill="url(#circuit)"/>
</svg>
